<mxfile host="app.diagrams.net" agent="Mozilla/5.0 (Windows NT 10.0; Win64; x64; rv:139.0) Gecko/20100101 Firefox/139.0" version="27.1.4">
  <diagram name="Página-1" id="XOzDuT_BLuzfoEI4354E">
    <mxGraphModel grid="1" page="0" gridSize="10" guides="1" tooltips="1" connect="1" arrows="1" fold="1" pageScale="1" pageWidth="827" pageHeight="1169" math="0" shadow="0">
      <root>
        <mxCell id="0" />
        <mxCell id="1" parent="0" />
        <mxCell id="d-h3nVW9UnOQR61AlAc2-1" value="C_WebView2" style="rounded=0;whiteSpace=wrap;html=1;fillColor=#e1d5e7;strokeColor=#9673a6;" vertex="1" parent="1">
          <mxGeometry x="450" y="240" width="100" height="40" as="geometry" />
        </mxCell>
        <mxCell id="d-h3nVW9UnOQR61AlAc2-2" value="C_sqlx" style="rounded=0;whiteSpace=wrap;html=1;fillColor=#e1d5e7;strokeColor=#9673a6;" vertex="1" parent="1">
          <mxGeometry x="850" y="240" width="100" height="40" as="geometry" />
        </mxCell>
        <mxCell id="d-h3nVW9UnOQR61AlAc2-3" value="C_MySQL" style="rounded=0;whiteSpace=wrap;html=1;fillColor=#dae8fc;strokeColor=#6c8ebf;" vertex="1" parent="1">
          <mxGeometry x="1060" y="240" width="100" height="40" as="geometry" />
        </mxCell>
        <mxCell id="d-h3nVW9UnOQR61AlAc2-4" value="Usuarios" style="rounded=0;whiteSpace=wrap;html=1;fillColor=#ffe6cc;strokeColor=#d79b00;" vertex="1" parent="1">
          <mxGeometry x="1250" y="240" width="100" height="40" as="geometry" />
        </mxCell>
        <mxCell id="d-h3nVW9UnOQR61AlAc2-5" value="V_Inicio_de_Sesión" style="rounded=0;whiteSpace=wrap;html=1;fillColor=#d5e8d4;strokeColor=#82b366;" vertex="1" parent="1">
          <mxGeometry x="245" y="240" width="150" height="40" as="geometry" />
        </mxCell>
        <mxCell id="d-h3nVW9UnOQR61AlAc2-6" value="" style="shape=umlLifeline;perimeter=lifelinePerimeter;whiteSpace=wrap;html=1;container=1;dropTarget=0;collapsible=0;recursiveResize=0;outlineConnect=0;portConstraint=eastwest;newEdgeStyle={&quot;curved&quot;:0,&quot;rounded&quot;:0};participant=umlActor;" vertex="1" parent="1">
          <mxGeometry x="130" y="230" width="20" height="90" as="geometry" />
        </mxCell>
        <mxCell id="d-h3nVW9UnOQR61AlAc2-7" value="" style="html=1;points=[[0,0,0,0,5],[0,1,0,0,-5],[1,0,0,0,5],[1,1,0,0,-5]];perimeter=orthogonalPerimeter;outlineConnect=0;targetShapes=umlLifeline;portConstraint=eastwest;newEdgeStyle={&quot;curved&quot;:0,&quot;rounded&quot;:0};" vertex="1" parent="1">
          <mxGeometry x="135" y="320" width="10" height="470" as="geometry" />
        </mxCell>
        <mxCell id="d-h3nVW9UnOQR61AlAc2-8" value="&lt;div&gt;C_Login&lt;/div&gt;" style="rounded=0;whiteSpace=wrap;html=1;fillColor=#dae8fc;strokeColor=#6c8ebf;" vertex="1" parent="1">
          <mxGeometry x="610" y="240" width="180" height="40" as="geometry" />
        </mxCell>
        <mxCell id="d-h3nVW9UnOQR61AlAc2-9" value="" style="endArrow=none;dashed=1;html=1;rounded=0;entryX=0.5;entryY=1;entryDx=0;entryDy=0;" edge="1" parent="1" target="d-h3nVW9UnOQR61AlAc2-5">
          <mxGeometry width="50" height="50" relative="1" as="geometry">
            <mxPoint x="320" y="330" as="sourcePoint" />
            <mxPoint x="319.5" y="310" as="targetPoint" />
          </mxGeometry>
        </mxCell>
        <mxCell id="d-h3nVW9UnOQR61AlAc2-10" value="Laborario, Recepción" style="text;html=1;align=center;verticalAlign=middle;resizable=0;points=[];autosize=1;strokeColor=none;fillColor=none;" vertex="1" parent="1">
          <mxGeometry x="70" y="200" width="140" height="30" as="geometry" />
        </mxCell>
        <mxCell id="d-h3nVW9UnOQR61AlAc2-11" value="1. A&lt;span style=&quot;background-color: light-dark(#ffffff, var(--ge-dark-color, #121212)); color: light-dark(rgb(0, 0, 0), rgb(255, 255, 255));&quot;&gt;ccede a la vista&lt;/span&gt;" style="html=1;verticalAlign=bottom;endArrow=block;curved=0;rounded=0;" edge="1" parent="1" source="d-h3nVW9UnOQR61AlAc2-7">
          <mxGeometry width="80" relative="1" as="geometry">
            <mxPoint x="200" y="369.5" as="sourcePoint" />
            <mxPoint x="310" y="360" as="targetPoint" />
            <Array as="points">
              <mxPoint x="230" y="360" />
            </Array>
            <mxPoint as="offset" />
          </mxGeometry>
        </mxCell>
        <mxCell id="d-h3nVW9UnOQR61AlAc2-12" value="" style="html=1;points=[[0,0,0,0,5],[0,1,0,0,-5],[1,0,0,0,5],[1,1,0,0,-5]];perimeter=orthogonalPerimeter;outlineConnect=0;targetShapes=umlLifeline;portConstraint=eastwest;newEdgeStyle={&quot;curved&quot;:0,&quot;rounded&quot;:0};" vertex="1" parent="1">
          <mxGeometry x="315" y="320" width="10" height="440" as="geometry" />
        </mxCell>
        <mxCell id="d-h3nVW9UnOQR61AlAc2-13" value="4. Solicita el ingreso de sesión" style="html=1;verticalAlign=bottom;endArrow=block;curved=0;rounded=0;align=center;" edge="1" parent="1" target="d-h3nVW9UnOQR61AlAc2-15">
          <mxGeometry x="0.0061" width="80" relative="1" as="geometry">
            <mxPoint x="330" y="460" as="sourcePoint" />
            <mxPoint x="495" y="479.71" as="targetPoint" />
            <mxPoint as="offset" />
          </mxGeometry>
        </mxCell>
        <mxCell id="d-h3nVW9UnOQR61AlAc2-14" value="" style="endArrow=none;dashed=1;html=1;rounded=0;" edge="1" parent="1">
          <mxGeometry width="50" height="50" relative="1" as="geometry">
            <mxPoint x="500" y="680" as="sourcePoint" />
            <mxPoint x="499" y="280" as="targetPoint" />
          </mxGeometry>
        </mxCell>
        <mxCell id="d-h3nVW9UnOQR61AlAc2-15" value="" style="html=1;points=[[0,0,0,0,5],[0,1,0,0,-5],[1,0,0,0,5],[1,1,0,0,-5]];perimeter=orthogonalPerimeter;outlineConnect=0;targetShapes=umlLifeline;portConstraint=eastwest;newEdgeStyle={&quot;curved&quot;:0,&quot;rounded&quot;:0};" vertex="1" parent="1">
          <mxGeometry x="495" y="320" width="10" height="400" as="geometry" />
        </mxCell>
        <mxCell id="d-h3nVW9UnOQR61AlAc2-16" value="" style="endArrow=none;dashed=1;html=1;rounded=0;" edge="1" parent="1">
          <mxGeometry width="50" height="50" relative="1" as="geometry">
            <mxPoint x="700" y="680" as="sourcePoint" />
            <mxPoint x="699.5" y="280" as="targetPoint" />
          </mxGeometry>
        </mxCell>
        <mxCell id="d-h3nVW9UnOQR61AlAc2-17" value="" style="html=1;points=[[0,0,0,0,5],[0,1,0,0,-5],[1,0,0,0,5],[1,1,0,0,-5]];perimeter=orthogonalPerimeter;outlineConnect=0;targetShapes=umlLifeline;portConstraint=eastwest;newEdgeStyle={&quot;curved&quot;:0,&quot;rounded&quot;:0};" vertex="1" parent="1">
          <mxGeometry x="695" y="320" width="10" height="400" as="geometry" />
        </mxCell>
        <mxCell id="d-h3nVW9UnOQR61AlAc2-18" value="5. Percibe un cambio en la&amp;nbsp;&lt;div&gt;pestaña&amp;nbsp;&amp;nbsp;&lt;span style=&quot;background-color: light-dark(#ffffff, var(--ge-dark-color, #121212)); color: light-dark(rgb(0, 0, 0), rgb(255, 255, 255));&quot;&gt;y notifica &lt;/span&gt;&lt;span style=&quot;background-color: light-dark(#ffffff, var(--ge-dark-color, #121212)); color: light-dark(rgb(0, 0, 0), rgb(255, 255, 255));&quot;&gt;el evento&lt;/span&gt;&lt;/div&gt;" style="html=1;verticalAlign=bottom;endArrow=block;curved=0;rounded=0;" edge="1" parent="1" source="d-h3nVW9UnOQR61AlAc2-15">
          <mxGeometry x="0.027" y="10" width="80" relative="1" as="geometry">
            <mxPoint x="510" y="500" as="sourcePoint" />
            <mxPoint x="690" y="500" as="targetPoint" />
            <Array as="points" />
            <mxPoint as="offset" />
          </mxGeometry>
        </mxCell>
        <mxCell id="d-h3nVW9UnOQR61AlAc2-19" value="6.. Prepara la solicitud y&amp;nbsp;&lt;div&gt;entrega la información a sqlx&lt;/div&gt;" style="html=1;verticalAlign=bottom;endArrow=block;curved=0;rounded=0;" edge="1" parent="1" source="d-h3nVW9UnOQR61AlAc2-17" target="d-h3nVW9UnOQR61AlAc2-20">
          <mxGeometry x="0.0995" y="10" width="80" relative="1" as="geometry">
            <mxPoint x="575" y="420" as="sourcePoint" />
            <mxPoint x="890" y="420" as="targetPoint" />
            <Array as="points">
              <mxPoint x="800" y="520" />
            </Array>
            <mxPoint as="offset" />
          </mxGeometry>
        </mxCell>
        <mxCell id="d-h3nVW9UnOQR61AlAc2-20" value="" style="html=1;points=[[0,0,0,0,5],[0,1,0,0,-5],[1,0,0,0,5],[1,1,0,0,-5]];perimeter=orthogonalPerimeter;outlineConnect=0;targetShapes=umlLifeline;portConstraint=eastwest;newEdgeStyle={&quot;curved&quot;:0,&quot;rounded&quot;:0};" vertex="1" parent="1">
          <mxGeometry x="896" y="320" width="10" height="360" as="geometry" />
        </mxCell>
        <mxCell id="d-h3nVW9UnOQR61AlAc2-21" value="" style="endArrow=none;dashed=1;html=1;rounded=0;" edge="1" parent="1">
          <mxGeometry width="50" height="50" relative="1" as="geometry">
            <mxPoint x="900.5" y="320" as="sourcePoint" />
            <mxPoint x="900.5" y="280" as="targetPoint" />
          </mxGeometry>
        </mxCell>
        <mxCell id="d-h3nVW9UnOQR61AlAc2-22" value="7. Solicitud de los datos en la base" style="html=1;verticalAlign=bottom;endArrow=block;curved=0;rounded=0;" edge="1" parent="1">
          <mxGeometry x="0.0025" width="80" relative="1" as="geometry">
            <mxPoint x="906" y="540" as="sourcePoint" />
            <mxPoint x="1096" y="540" as="targetPoint" />
            <mxPoint as="offset" />
            <Array as="points">
              <mxPoint x="1000" y="540" />
            </Array>
          </mxGeometry>
        </mxCell>
        <mxCell id="d-h3nVW9UnOQR61AlAc2-23" value="" style="html=1;points=[[0,0,0,0,5],[0,1,0,0,-5],[1,0,0,0,5],[1,1,0,0,-5]];perimeter=orthogonalPerimeter;outlineConnect=0;targetShapes=umlLifeline;portConstraint=eastwest;newEdgeStyle={&quot;curved&quot;:0,&quot;rounded&quot;:0};" vertex="1" parent="1">
          <mxGeometry x="1096" y="320" width="10" height="360" as="geometry" />
        </mxCell>
        <mxCell id="d-h3nVW9UnOQR61AlAc2-24" value="" style="endArrow=none;dashed=1;html=1;rounded=0;" edge="1" parent="1">
          <mxGeometry width="50" height="50" relative="1" as="geometry">
            <mxPoint x="1100.5" y="320" as="sourcePoint" />
            <mxPoint x="1100.5" y="280" as="targetPoint" />
          </mxGeometry>
        </mxCell>
        <mxCell id="d-h3nVW9UnOQR61AlAc2-25" value="8. Realiza la consulta&lt;div&gt;en la base de datos&lt;/div&gt;" style="html=1;verticalAlign=bottom;endArrow=block;curved=0;rounded=0;" edge="1" parent="1">
          <mxGeometry width="80" relative="1" as="geometry">
            <mxPoint x="1106" y="560" as="sourcePoint" />
            <mxPoint x="1295" y="560" as="targetPoint" />
            <mxPoint as="offset" />
          </mxGeometry>
        </mxCell>
        <mxCell id="d-h3nVW9UnOQR61AlAc2-26" value="" style="html=1;points=[[0,0,0,0,5],[0,1,0,0,-5],[1,0,0,0,5],[1,1,0,0,-5]];perimeter=orthogonalPerimeter;outlineConnect=0;targetShapes=umlLifeline;portConstraint=eastwest;newEdgeStyle={&quot;curved&quot;:0,&quot;rounded&quot;:0};" vertex="1" parent="1">
          <mxGeometry x="1295" y="320" width="10" height="360" as="geometry" />
        </mxCell>
        <mxCell id="d-h3nVW9UnOQR61AlAc2-27" value="" style="endArrow=none;dashed=1;html=1;rounded=0;" edge="1" parent="1">
          <mxGeometry width="50" height="50" relative="1" as="geometry">
            <mxPoint x="1299.5" y="320" as="sourcePoint" />
            <mxPoint x="1299.5" y="280" as="targetPoint" />
          </mxGeometry>
        </mxCell>
        <mxCell id="d-h3nVW9UnOQR61AlAc2-28" value="10. Envía los datos&lt;div&gt;a sqlx&lt;/div&gt;" style="html=1;verticalAlign=bottom;endArrow=open;dashed=1;endSize=8;curved=0;rounded=0;" edge="1" parent="1">
          <mxGeometry x="0.0025" relative="1" as="geometry">
            <mxPoint x="1096" y="620" as="sourcePoint" />
            <mxPoint x="906" y="620" as="targetPoint" />
            <mxPoint as="offset" />
          </mxGeometry>
        </mxCell>
        <mxCell id="d-h3nVW9UnOQR61AlAc2-29" value="&lt;div&gt;11. Transferir los datos&amp;nbsp;&lt;/div&gt;&lt;div&gt;al controlador&lt;/div&gt;" style="html=1;verticalAlign=bottom;endArrow=open;dashed=1;endSize=8;curved=0;rounded=0;" edge="1" parent="1">
          <mxGeometry x="0.0072" relative="1" as="geometry">
            <mxPoint x="896" y="640" as="sourcePoint" />
            <mxPoint x="705" y="640" as="targetPoint" />
            <mxPoint as="offset" />
            <Array as="points">
              <mxPoint x="740" y="640" />
            </Array>
          </mxGeometry>
        </mxCell>
        <mxCell id="d-h3nVW9UnOQR61AlAc2-30" value="9. La contraseña es distinta a la&lt;div&gt;registrada&amp;nbsp;&lt;/div&gt;" style="html=1;verticalAlign=bottom;endArrow=open;dashed=1;endSize=8;curved=0;rounded=0;" edge="1" parent="1">
          <mxGeometry x="-0.0053" relative="1" as="geometry">
            <mxPoint x="1295" y="600" as="sourcePoint" />
            <mxPoint x="1106" y="600" as="targetPoint" />
            <mxPoint as="offset" />
          </mxGeometry>
        </mxCell>
        <mxCell id="d-h3nVW9UnOQR61AlAc2-31" value="13. Crear los componentes para&amp;nbsp;&lt;div&gt;que sean visualizados&lt;/div&gt;" style="html=1;verticalAlign=bottom;endArrow=open;dashed=1;endSize=8;curved=0;rounded=0;" edge="1" parent="1">
          <mxGeometry relative="1" as="geometry">
            <mxPoint x="495" y="680" as="sourcePoint" />
            <mxPoint x="325" y="680" as="targetPoint" />
          </mxGeometry>
        </mxCell>
        <mxCell id="d-h3nVW9UnOQR61AlAc2-32" value="14. Notifica al usuario el&amp;nbsp;&lt;div&gt;que la contraseña es incorrecta&lt;/div&gt;" style="html=1;verticalAlign=bottom;endArrow=open;dashed=1;endSize=8;curved=0;rounded=0;" edge="1" parent="1" target="d-h3nVW9UnOQR61AlAc2-7">
          <mxGeometry x="-0.0303" y="-10" relative="1" as="geometry">
            <mxPoint x="310" y="700" as="sourcePoint" />
            <mxPoint x="175" y="620" as="targetPoint" />
            <Array as="points">
              <mxPoint x="220" y="700" />
            </Array>
            <mxPoint as="offset" />
          </mxGeometry>
        </mxCell>
        <mxCell id="d-h3nVW9UnOQR61AlAc2-33" value="" style="html=1;verticalAlign=bottom;endArrow=open;dashed=1;endSize=8;curved=0;rounded=0;" edge="1" parent="1">
          <mxGeometry relative="1" as="geometry">
            <mxPoint x="495" y="600" as="sourcePoint" />
            <mxPoint x="495" y="600" as="targetPoint" />
          </mxGeometry>
        </mxCell>
        <mxCell id="d-h3nVW9UnOQR61AlAc2-35" value="12. Se procesan los datos y&amp;nbsp;&lt;div&gt;permite el inicio de sesión&lt;/div&gt;" style="endArrow=open;dashed=1;html=1;strokeWidth=1;rounded=0;strokeColor=default;align=center;verticalAlign=bottom;fontFamily=Helvetica;fontSize=11;fontColor=default;labelBackgroundColor=default;endSize=8;curved=0;" edge="1" parent="1" target="d-h3nVW9UnOQR61AlAc2-15">
          <mxGeometry x="-0.027" y="-10" width="50" height="50" relative="1" as="geometry">
            <mxPoint x="690" y="660" as="sourcePoint" />
            <mxPoint x="510" y="660" as="targetPoint" />
            <mxPoint as="offset" />
          </mxGeometry>
        </mxCell>
        <mxCell id="s0PSk7Hvxjx9_ZsU7vWv-1" value="2. Solicita al usuario&amp;nbsp;&lt;div&gt;ingresar sus credenciales&lt;/div&gt;" style="endArrow=open;dashed=1;html=1;rounded=0;strokeColor=default;align=center;verticalAlign=bottom;fontFamily=Helvetica;fontSize=11;fontColor=default;labelBackgroundColor=default;endSize=8;curved=0;" edge="1" parent="1" target="d-h3nVW9UnOQR61AlAc2-7">
          <mxGeometry x="-0.0303" width="50" height="50" relative="1" as="geometry">
            <mxPoint x="310" y="400" as="sourcePoint" />
            <mxPoint x="700" y="460" as="targetPoint" />
            <Array as="points">
              <mxPoint x="250" y="400" />
            </Array>
            <mxPoint as="offset" />
          </mxGeometry>
        </mxCell>
        <mxCell id="s0PSk7Hvxjx9_ZsU7vWv-2" value="3. El usuario ingresa&amp;nbsp;&lt;div&gt;sus credenciales&lt;/div&gt;" style="endArrow=classic;html=1;rounded=0;" edge="1" parent="1" source="d-h3nVW9UnOQR61AlAc2-7">
          <mxGeometry x="0.0303" y="20" width="50" height="50" relative="1" as="geometry">
            <mxPoint x="650" y="500" as="sourcePoint" />
            <mxPoint x="310" y="440" as="targetPoint" />
            <mxPoint as="offset" />
            <Array as="points">
              <mxPoint x="260" y="440" />
            </Array>
          </mxGeometry>
        </mxCell>
      </root>
    </mxGraphModel>
  </diagram>
</mxfile>
